0
SECTION
2
HEADER
0
ENDSEC
0
SECTION
2
TABLES
0
TABLE
2
LTYPE
0
LTYPE
72
65
70
0
2
CONTINUOUS
3
______
73
0
40
0
0
LTYPE
72
65
70
0
2
DASHED
3
_ _ _ 
73
2
40
7.5
49
5
49
-2.5
0
LTYPE
72
65
70
0
2
DOTTED
3
. . . 
73
2
40
1.5
49
0.5
49
-1
0
ENDTAB
0
TABLE
2
LAYER
0
ENDTAB
0
ENDSEC
0
SECTION
2
ENTITIES
0
POLYLINE
8
0
6
CONTINUOUS
66
1
70
1
0
VERTEX
8
0
10
0
20
0
0
VERTEX
8
0
10
1220
20
0
0
VERTEX
8
0
10
1220
20
2440
0
VERTEX
8
0
10
0
20
2440
0
SEQEND
0
POLYLINE
8
0
6
CONTINUOUS
66
1
70
1
0
VERTEX
8
0
10
50
20
409.9999021
0
VERTEX
8
0
10
60
20
418.4146119
0
VERTEX
8
0
10
70
20
419.0928763
0
VERTEX
8
0
10
80
20
411.4111021
0
VERTEX
8
0
10
90
20
402.4318771
0
VERTEX
8
0
10
100
20
400.4106593
0
VERTEX
8
0
10
110
20
407.2057471
0
VERTEX
8
0
10
120
20
416.5697681
0
VERTEX
8
0
10
130
20
419.8934845
0
VERTEX
8
0
10
140
20
414.1210869
0
VERTEX
8
0
10
150
20
404.559691
0
VERTEX
8
0
10
160
20
400
0
VERTEX
8
0
10
170
20
404.6341729
0
VERTEX
8
0
10
180
20
414.2015724
0
VERTEX
8
0
10
190
20
419.9059756
0
VERTEX
8
0
10
200
20
416.5027805
0
VERTEX
8
0
10
210
20
407.1208689
0
VERTEX
8
0
10
220
20
400.3859271
0
VERTEX
8
0
10
230
20
402.4900296
0
VERTEX
8
0
10
240
20
411.4986742
0
VERTEX
8
0
10
250
20
419.1293546
0
VERTEX
8
0
10
260
20
418.3664585
0
VERTEX
8
0
10
270
20
409.911389
0
VERTEX
8
0
10
280
20
401.537698
0
VERTEX
8
0
10
290
20
400.9441184
0
VERTEX
8
0
10
300
20
408.6763846
0
VERTEX
8
0
10
310
20
417.6254866
0
VERTEX
8
0
10
320
20
419.5636613
0
VERTEX
8
0
10
330
20
412.7089599
0
VERTEX
8
0
10
340
20
403.3635632
0
VERTEX
8
0
10
350
20
400.1195858
0
VERTEX
8
0
10
360
20
405.9595256
0
VERTEX
8
0
10
370
20
415.5141689
0
VERTEX
8
0
10
380
20
419.9990207
0
VERTEX
8
0
10
390
20
415.2907289
0
VERTEX
8
0
10
400
20
405.7180754
0
VERTEX
8
0
10
410
20
400.0821135
0
VERTEX
8
0
10
420
20
403.5645207
0
VERTEX
8
0
10
430
20
412.9635879
0
VERTEX
8
0
10
440
20
419.6378559
0
VERTEX
8
0
10
450
20
417.4510337
0
VERTEX
8
0
10
460
20
408.4136754
0
VERTEX
8
0
10
470
20
400.8346866
0
VERTEX
8
0
10
480
20
401.6821546
0
VERTEX
8
0
10
490
20
410.1769213
0
VERTEX
8
0
10
500
20
418.5089373
0
VERTEX
8
0
10
510
20
419.0177855
0
VERTEX
8
0
10
520
20
411.2356333
0
VERTEX
8
0
10
530
20
402.3173555
0
VERTEX
8
0
10
540
20
400.4623755
0
VERTEX
8
0
10
550
20
407.3761535
0
VERTEX
8
0
10
560
20
416.7021938
0
VERTEX
8
0
10
570
20
419.866178
0
VERTEX
8
0
10
580
20
413.9591536
0
VERTEX
8
0
10
590
20
404.4120116
0
VERTEX
8
0
10
600
20
400.0023503
0
VERTEX
8
0
10
610
20
404.784392
0
VERTEX
8
0
10
620
20
414.3615496
0
VERTEX
8
0
10
630
20
419.9286285
0
VERTEX
8
0
10
640
20
416.3672821
0
VERTEX
8
0
10
650
20
406.9517959
0
VERTEX
8
0
10
660
20
400.3387244
0
VERTEX
8
0
10
670
20
402.6080951
0
VERTEX
8
0
10
680
20
411.6734591
0
VERTEX
8
0
10
690
20
419.2001624
0
VERTEX
8
0
10
700
20
418.2681889
0
VERTEX
8
0
10
710
20
409.7343905
0
VERTEX
8
0
10
720
20
401.4447023
0
VERTEX
8
0
10
730
20
401.0206253
0
VERTEX
8
0
10
740
20
408.8520539
0
VERTEX
8
0
10
750
20
417.7388089
0
VERTEX
8
0
10
760
20
419.5104486
0
VERTEX
8
0
10
770
20
412.5381357
0
VERTEX
8
0
10
780
20
403.2321825
0
VERTEX
8
0
10
790
20
400.1484395
0
VERTEX
8
0
10
800
20
406.1220857
0
VERTEX
8
0
10
810
20
415.6609784
0
VERTEX
8
0
10
820
20
419.9951037
0
VERTEX
8
0
10
830
20
415.1396866
0
VERTEX
8
0
10
840
20
405.5587754
0
VERTEX
8
0
10
850
20
400.0610155
0
VERTEX
8
0
10
860
20
403.7010221
0
VERTEX
8
0
10
870
20
413.1321899
0
VERTEX
8
0
10
880
20
419.6835467
0
VERTEX
8
0
10
890
20
417.3318053
0
VERTEX
8
0
10
900
20
408.2391459
0
VERTEX
8
0
10
910
20
400.7653176
0
VERTEX
8
0
10
920
20
401.7817237
0
VERTEX
8
0
10
930
20
410.3538851
0
VERTEX
8
0
10
940
20
418.6005961
0
VERTEX
8
0
10
950
20
418.9398687
0
VERTEX
8
0
10
960
20
411.0597772
0
VERTEX
8
0
10
970
20
402.2052414
0
VERTEX
8
0
10
980
20
400.5170807
0
VERTEX
8
0
10
990
20
407.5473822
0
VERTEX
8
0
10
1000
20
416.8325192
0
VERTEX
8
0
10
1010
20
419.8357795
0
VERTEX
8
0
10
1020
20
413.7959795
0
VERTEX
8
0
10
1030
20
404.2660833
0
VERTEX
8
0
10
1040
20
400.0078337
0
VERTEX
8
0
10
1050
20
404.9362457
0
VERTEX
8
0
10
1050
20
334.9362457
0
VERTEX
8
0
10
1040
20
330.0078337
0
VERTEX
8
0
10
1030
20
334.2660833
0
VERTEX
8
0
10
1020
20
343.7959795
0
VERTEX
8
0
10
1010
20
349.8357795
0
VERTEX
8
0
10
1000
20
346.8325192
0
VERTEX
8
0
10
990
20
337.5473822
0
VERTEX
8
0
10
980
20
330.5170807
0
VERTEX
8
0
10
970
20
332.2052414
0
VERTEX
8
0
10
960
20
341.0597772
0
VERTEX
8
0
10
950
20
348.9398687
0
VERTEX
8
0
10
940
20
348.6005961
0
VERTEX
8
0
10
930
20
340.3538851
0
VERTEX
8
0
10
920
20
331.7817237
0
VERTEX
8
0
10
910
20
330.7653176
0
VERTEX
8
0
10
900
20
338.2391459
0
VERTEX
8
0
10
890
20
347.3318053
0
VERTEX
8
0
10
880
20
349.6835467
0
VERTEX
8
0
10
870
20
343.1321899
0
VERTEX
8
0
10
860
20
333.7010221
0
VERTEX
8
0
10
850
20
330.0610155
0
VERTEX
8
0
10
840
20
335.5587754
0
VERTEX
8
0
10
830
20
345.1396866
0
VERTEX
8
0
10
820
20
349.9951037
0
VERTEX
8
0
10
810
20
345.6609784
0
VERTEX
8
0
10
800
20
336.1220857
0
VERTEX
8
0
10
790
20
330.1484395
0
VERTEX
8
0
10
780
20
333.2321825
0
VERTEX
8
0
10
770
20
342.5381357
0
VERTEX
8
0
10
760
20
349.5104486
0
VERTEX
8
0
10
750
20
347.7388089
0
VERTEX
8
0
10
740
20
338.8520539
0
VERTEX
8
0
10
730
20
331.0206253
0
VERTEX
8
0
10
720
20
331.4447023
0
VERTEX
8
0
10
710
20
339.7343905
0
VERTEX
8
0
10
700
20
348.2681889
0
VERTEX
8
0
10
690
20
349.2001624
0
VERTEX
8
0
10
680
20
341.6734591
0
VERTEX
8
0
10
670
20
332.6080951
0
VERTEX
8
0
10
660
20
330.3387244
0
VERTEX
8
0
10
650
20
336.9517959
0
VERTEX
8
0
10
640
20
346.3672821
0
VERTEX
8
0
10
630
20
349.9286285
0
VERTEX
8
0
10
620
20
344.3615496
0
VERTEX
8
0
10
610
20
334.784392
0
VERTEX
8
0
10
600
20
330.0023503
0
VERTEX
8
0
10
590
20
334.4120116
0
VERTEX
8
0
10
580
20
343.9591536
0
VERTEX
8
0
10
570
20
349.866178
0
VERTEX
8
0
10
560
20
346.7021938
0
VERTEX
8
0
10
550
20
337.3761535
0
VERTEX
8
0
10
540
20
330.4623755
0
VERTEX
8
0
10
530
20
332.3173555
0
VERTEX
8
0
10
520
20
341.2356333
0
VERTEX
8
0
10
510
20
349.0177855
0
VERTEX
8
0
10
500
20
348.5089373
0
VERTEX
8
0
10
490
20
340.1769213
0
VERTEX
8
0
10
480
20
331.6821546
0
VERTEX
8
0
10
470
20
330.8346866
0
VERTEX
8
0
10
460
20
338.4136754
0
VERTEX
8
0
10
450
20
347.4510337
0
VERTEX
8
0
10
440
20
349.6378559
0
VERTEX
8
0
10
430
20
342.9635879
0
VERTEX
8
0
10
420
20
333.5645207
0
VERTEX
8
0
10
410
20
330.0821135
0
VERTEX
8
0
10
400
20
335.7180754
0
VERTEX
8
0
10
390
20
345.2907289
0
VERTEX
8
0
10
380
20
349.9990207
0
VERTEX
8
0
10
370
20
345.5141689
0
VERTEX
8
0
10
360
20
335.9595256
0
VERTEX
8
0
10
350
20
330.1195858
0
VERTEX
8
0
10
340
20
333.3635632
0
VERTEX
8
0
10
330
20
342.7089599
0
VERTEX
8
0
10
320
20
349.5636613
0
VERTEX
8
0
10
310
20
347.6254866
0
VERTEX
8
0
10
300
20
338.6763846
0
VERTEX
8
0
10
290
20
330.9441184
0
VERTEX
8
0
10
280
20
331.537698
0
VERTEX
8
0
10
270
20
339.911389
0
VERTEX
8
0
10
260
20
348.3664585
0
VERTEX
8
0
10
250
20
349.1293546
0
VERTEX
8
0
10
240
20
341.4986742
0
VERTEX
8
0
10
230
20
332.4900296
0
VERTEX
8
0
10
220
20
330.3859271
0
VERTEX
8
0
10
210
20
337.1208689
0
VERTEX
8
0
10
200
20
346.5027805
0
VERTEX
8
0
10
190
20
349.9059756
0
VERTEX
8
0
10
180
20
344.2015724
0
VERTEX
8
0
10
170
20
334.6341729
0
VERTEX
8
0
10
160
20
330
0
VERTEX
8
0
10
150
20
334.559691
0
VERTEX
8
0
10
140
20
344.1210869
0
VERTEX
8
0
10
130
20
349.8934845
0
VERTEX
8
0
10
120
20
346.5697681
0
VERTEX
8
0
10
110
20
337.2057471
0
VERTEX
8
0
10
100
20
330.4106593
0
VERTEX
8
0
10
90
20
332.4318771
0
VERTEX
8
0
10
80
20
341.4111021
0
VERTEX
8
0
10
70
20
349.0928763
0
VERTEX
8
0
10
60
20
348.4146119
0
VERTEX
8
0
10
50
20
339.9999021
0
SEQEND
0
POLYLINE
8
0
6
CONTINUOUS
66
1
70
1
0
VERTEX
8
0
10
27
20
15
0
VERTEX
8
0
10
37
20
15
0
VERTEX
8
0
10
37
20
75
0
VERTEX
8
0
10
27
20
75
0
VERTEX
8
0
10
15
20
75
0
VERTEX
8
0
10
15
20
15
0
SEQEND
0
POLYLINE
8
0
6
CONTINUOUS
66
1
70
1
0
VERTEX
8
0
10
64
20
15
0
VERTEX
8
0
10
74
20
15
0
VERTEX
8
0
10
74
20
75
0
VERTEX
8
0
10
64
20
75
0
VERTEX
8
0
10
52
20
75
0
VERTEX
8
0
10
52
20
15
0
SEQEND
0
POLYLINE
8
0
6
CONTINUOUS
66
1
70
1
0
VERTEX
8
0
10
101
20
15
0
VERTEX
8
0
10
111
20
15
0
VERTEX
8
0
10
111
20
75
0
VERTEX
8
0
10
101
20
75
0
VERTEX
8
0
10
89
20
75
0
VERTEX
8
0
10
89
20
15
0
SEQEND
0
POLYLINE
8
0
6
CONTINUOUS
66
1
70
1
0
VERTEX
8
0
10
138
20
15
0
VERTEX
8
0
10
148
20
15
0
VERTEX
8
0
10
148
20
75
0
VERTEX
8
0
10
138
20
75
0
VERTEX
8
0
10
126
20
75
0
VERTEX
8
0
10
126
20
15
0
SEQEND
0
POLYLINE
8
0
6
CONTINUOUS
66
1
70
1
0
VERTEX
8
0
10
175
20
15
0
VERTEX
8
0
10
185
20
15
0
VERTEX
8
0
10
185
20
75
0
VERTEX
8
0
10
175
20
75
0
VERTEX
8
0
10
163
20
75
0
VERTEX
8
0
10
163
20
15
0
SEQEND
0
POLYLINE
8
0
6
CONTINUOUS
66
1
70
1
0
VERTEX
8
0
10
212
20
15
0
VERTEX
8
0
10
222
20
15
0
VERTEX
8
0
10
222
20
75
0
VERTEX
8
0
10
212
20
75
0
VERTEX
8
0
10
200
20
75
0
VERTEX
8
0
10
200
20
15
0
SEQEND
0
POLYLINE
8
0
6
CONTINUOUS
66
1
70
1
0
VERTEX
8
0
10
249
20
15
0
VERTEX
8
0
10
259
20
15
0
VERTEX
8
0
10
259
20
75
0
VERTEX
8
0
10
249
20
75
0
VERTEX
8
0
10
237
20
75
0
VERTEX
8
0
10
237
20
15
0
SEQEND
0
POLYLINE
8
0
6
CONTINUOUS
66
1
70
1
0
VERTEX
8
0
10
286
20
15
0
VERTEX
8
0
10
296
20
15
0
VERTEX
8
0
10
296
20
75
0
VERTEX
8
0
10
286
20
75
0
VERTEX
8
0
10
274
20
75
0
VERTEX
8
0
10
274
20
15
0
SEQEND
0
POLYLINE
8
0
6
CONTINUOUS
66
1
70
1
0
VERTEX
8
0
10
323
20
15
0
VERTEX
8
0
10
333
20
15
0
VERTEX
8
0
10
333
20
75
0
VERTEX
8
0
10
323
20
75
0
VERTEX
8
0
10
311
20
75
0
VERTEX
8
0
10
311
20
15
0
SEQEND
0
POLYLINE
8
0
6
CONTINUOUS
66
1
70
1
0
VERTEX
8
0
10
360
20
15
0
VERTEX
8
0
10
370
20
15
0
VERTEX
8
0
10
370
20
75
0
VERTEX
8
0
10
360
20
75
0
VERTEX
8
0
10
348
20
75
0
VERTEX
8
0
10
348
20
15
0
SEQEND
0
POLYLINE
8
0
6
CONTINUOUS
66
1
70
1
0
VERTEX
8
0
10
397
20
15
0
VERTEX
8
0
10
407
20
15
0
VERTEX
8
0
10
407
20
75
0
VERTEX
8
0
10
397
20
75
0
VERTEX
8
0
10
385
20
75
0
VERTEX
8
0
10
385
20
15
0
SEQEND
0
POLYLINE
8
0
6
CONTINUOUS
66
1
70
1
0
VERTEX
8
0
10
434
20
15
0
VERTEX
8
0
10
444
20
15
0
VERTEX
8
0
10
444
20
75
0
VERTEX
8
0
10
434
20
75
0
VERTEX
8
0
10
422
20
75
0
VERTEX
8
0
10
422
20
15
0
SEQEND
0
POLYLINE
8
0
6
CONTINUOUS
66
1
70
1
0
VERTEX
8
0
10
471
20
15
0
VERTEX
8
0
10
481
20
15
0
VERTEX
8
0
10
481
20
75
0
VERTEX
8
0
10
471
20
75
0
VERTEX
8
0
10
459
20
75
0
VERTEX
8
0
10
459
20
15
0
SEQEND
0
POLYLINE
8
0
6
CONTINUOUS
66
1
70
1
0
VERTEX
8
0
10
508
20
15
0
VERTEX
8
0
10
518
20
15
0
VERTEX
8
0
10
518
20
75
0
VERTEX
8
0
10
508
20
75
0
VERTEX
8
0
10
496
20
75
0
VERTEX
8
0
10
496
20
15
0
SEQEND
0
POLYLINE
8
0
6
CONTINUOUS
66
1
70
1
0
VERTEX
8
0
10
545
20
15
0
VERTEX
8
0
10
555
20
15
0
VERTEX
8
0
10
555
20
75
0
VERTEX
8
0
10
545
20
75
0
VERTEX
8
0
10
533
20
75
0
VERTEX
8
0
10
533
20
15
0
SEQEND
0
POLYLINE
8
0
6
CONTINUOUS
66
1
70
1
0
VERTEX
8
0
10
582
20
15
0
VERTEX
8
0
10
592
20
15
0
VERTEX
8
0
10
592
20
75
0
VERTEX
8
0
10
582
20
75
0
VERTEX
8
0
10
570
20
75
0
VERTEX
8
0
10
570
20
15
0
SEQEND
0
POLYLINE
8
0
6
CONTINUOUS
66
1
70
1
0
VERTEX
8
0
10
619
20
15
0
VERTEX
8
0
10
629
20
15
0
VERTEX
8
0
10
629
20
75
0
VERTEX
8
0
10
619
20
75
0
VERTEX
8
0
10
607
20
75
0
VERTEX
8
0
10
607
20
15
0
SEQEND
0
POLYLINE
8
0
6
CONTINUOUS
66
1
70
1
0
VERTEX
8
0
10
656
20
15
0
VERTEX
8
0
10
666
20
15
0
VERTEX
8
0
10
666
20
75
0
VERTEX
8
0
10
656
20
75
0
VERTEX
8
0
10
644
20
75
0
VERTEX
8
0
10
644
20
15
0
SEQEND
0
POLYLINE
8
0
6
CONTINUOUS
66
1
70
1
0
VERTEX
8
0
10
693
20
15
0
VERTEX
8
0
10
703
20
15
0
VERTEX
8
0
10
703
20
75
0
VERTEX
8
0
10
693
20
75
0
VERTEX
8
0
10
681
20
75
0
VERTEX
8
0
10
681
20
15
0
SEQEND
0
POLYLINE
8
0
6
CONTINUOUS
66
1
70
1
0
VERTEX
8
0
10
730
20
15
0
VERTEX
8
0
10
740
20
15
0
VERTEX
8
0
10
740
20
75
0
VERTEX
8
0
10
730
20
75
0
VERTEX
8
0
10
718
20
75
0
VERTEX
8
0
10
718
20
15
0
SEQEND
0
POLYLINE
8
0
6
CONTINUOUS
66
1
70
1
0
VERTEX
8
0
10
767
20
15
0
VERTEX
8
0
10
777
20
15
0
VERTEX
8
0
10
777
20
75
0
VERTEX
8
0
10
767
20
75
0
VERTEX
8
0
10
755
20
75
0
VERTEX
8
0
10
755
20
15
0
SEQEND
0
POLYLINE
8
0
6
CONTINUOUS
66
1
70
1
0
VERTEX
8
0
10
804
20
15
0
VERTEX
8
0
10
814
20
15
0
VERTEX
8
0
10
814
20
75
0
VERTEX
8
0
10
804
20
75
0
VERTEX
8
0
10
792
20
75
0
VERTEX
8
0
10
792
20
15
0
SEQEND
0
POLYLINE
8
0
6
CONTINUOUS
66
1
70
1
0
VERTEX
8
0
10
841
20
15
0
VERTEX
8
0
10
851
20
15
0
VERTEX
8
0
10
851
20
75
0
VERTEX
8
0
10
841
20
75
0
VERTEX
8
0
10
829
20
75
0
VERTEX
8
0
10
829
20
15
0
SEQEND
0
POLYLINE
8
0
6
CONTINUOUS
66
1
70
1
0
VERTEX
8
0
10
878
20
15
0
VERTEX
8
0
10
888
20
15
0
VERTEX
8
0
10
888
20
75
0
VERTEX
8
0
10
878
20
75
0
VERTEX
8
0
10
866
20
75
0
VERTEX
8
0
10
866
20
15
0
SEQEND
0
POLYLINE
8
0
6
CONTINUOUS
66
1
70
1
0
VERTEX
8
0
10
915
20
15
0
VERTEX
8
0
10
925
20
15
0
VERTEX
8
0
10
925
20
75
0
VERTEX
8
0
10
915
20
75
0
VERTEX
8
0
10
903
20
75
0
VERTEX
8
0
10
903
20
15
0
SEQEND
0
POLYLINE
8
0
6
CONTINUOUS
66
1
70
1
0
VERTEX
8
0
10
952
20
15
0
VERTEX
8
0
10
962
20
15
0
VERTEX
8
0
10
962
20
75
0
VERTEX
8
0
10
952
20
75
0
VERTEX
8
0
10
940
20
75
0
VERTEX
8
0
10
940
20
15
0
SEQEND
0
POLYLINE
8
0
6
CONTINUOUS
66
1
70
1
0
VERTEX
8
0
10
989
20
15
0
VERTEX
8
0
10
999
20
15
0
VERTEX
8
0
10
999
20
75
0
VERTEX
8
0
10
989
20
75
0
VERTEX
8
0
10
977
20
75
0
VERTEX
8
0
10
977
20
15
0
SEQEND
0
POLYLINE
8
0
6
CONTINUOUS
66
1
70
1
0
VERTEX
8
0
10
1026
20
15
0
VERTEX
8
0
10
1036
20
15
0
VERTEX
8
0
10
1036
20
75
0
VERTEX
8
0
10
1026
20
75
0
VERTEX
8
0
10
1014
20
75
0
VERTEX
8
0
10
1014
20
15
0
SEQEND
0
POLYLINE
8
0
6
CONTINUOUS
66
1
70
1
0
VERTEX
8
0
10
1063
20
15
0
VERTEX
8
0
10
1073
20
15
0
VERTEX
8
0
10
1073
20
75
0
VERTEX
8
0
10
1063
20
75
0
VERTEX
8
0
10
1051
20
75
0
VERTEX
8
0
10
1051
20
15
0
SEQEND
0
POLYLINE
8
0
6
CONTINUOUS
66
1
70
1
0
VERTEX
8
0
10
1100
20
15
0
VERTEX
8
0
10
1110
20
15
0
VERTEX
8
0
10
1110
20
75
0
VERTEX
8
0
10
1100
20
75
0
VERTEX
8
0
10
1088
20
75
0
VERTEX
8
0
10
1088
20
15
0
SEQEND
0
POLYLINE
8
0
6
CONTINUOUS
66
1
70
1
0
VERTEX
8
0
10
1137
20
15
0
VERTEX
8
0
10
1147
20
15
0
VERTEX
8
0
10
1147
20
75
0
VERTEX
8
0
10
1137
20
75
0
VERTEX
8
0
10
1125
20
75
0
VERTEX
8
0
10
1125
20
15
0
SEQEND
0
POLYLINE
8
0
6
CONTINUOUS
66
1
70
1
0
VERTEX
8
0
10
1174
20
15
0
VERTEX
8
0
10
1184
20
15
0
VERTEX
8
0
10
1184
20
75
0
VERTEX
8
0
10
1174
20
75
0
VERTEX
8
0
10
1162
20
75
0
VERTEX
8
0
10
1162
20
15
0
SEQEND
0
POLYLINE
8
0
6
CONTINUOUS
66
1
70
1
0
VERTEX
8
0
10
27
20
90
0
VERTEX
8
0
10
37
20
90
0
VERTEX
8
0
10
37
20
150
0
VERTEX
8
0
10
27
20
150
0
VERTEX
8
0
10
15
20
150
0
VERTEX
8
0
10
15
20
90
0
SEQEND
0
POLYLINE
8
0
6
CONTINUOUS
66
1
70
1
0
VERTEX
8
0
10
64
20
90
0
VERTEX
8
0
10
74
20
90
0
VERTEX
8
0
10
74
20
150
0
VERTEX
8
0
10
64
20
150
0
VERTEX
8
0
10
52
20
150
0
VERTEX
8
0
10
52
20
90
0
SEQEND
0
POLYLINE
8
0
6
CONTINUOUS
66
1
70
1
0
VERTEX
8
0
10
101
20
90
0
VERTEX
8
0
10
111
20
90
0
VERTEX
8
0
10
111
20
150
0
VERTEX
8
0
10
101
20
150
0
VERTEX
8
0
10
89
20
150
0
VERTEX
8
0
10
89
20
90
0
SEQEND
0
POLYLINE
8
0
6
CONTINUOUS
66
1
70
1
0
VERTEX
8
0
10
138
20
90
0
VERTEX
8
0
10
148
20
90
0
VERTEX
8
0
10
148
20
150
0
VERTEX
8
0
10
138
20
150
0
VERTEX
8
0
10
126
20
150
0
VERTEX
8
0
10
126
20
90
0
SEQEND
0
POLYLINE
8
0
6
CONTINUOUS
66
1
70
1
0
VERTEX
8
0
10
175
20
90
0
VERTEX
8
0
10
185
20
90
0
VERTEX
8
0
10
185
20
150
0
VERTEX
8
0
10
175
20
150
0
VERTEX
8
0
10
163
20
150
0
VERTEX
8
0
10
163
20
90
0
SEQEND
0
POLYLINE
8
0
6
CONTINUOUS
66
1
70
1
0
VERTEX
8
0
10
212
20
90
0
VERTEX
8
0
10
222
20
90
0
VERTEX
8
0
10
222
20
150
0
VERTEX
8
0
10
212
20
150
0
VERTEX
8
0
10
200
20
150
0
VERTEX
8
0
10
200
20
90
0
SEQEND
0
POLYLINE
8
0
6
CONTINUOUS
66
1
70
1
0
VERTEX
8
0
10
249
20
90
0
VERTEX
8
0
10
259
20
90
0
VERTEX
8
0
10
259
20
150
0
VERTEX
8
0
10
249
20
150
0
VERTEX
8
0
10
237
20
150
0
VERTEX
8
0
10
237
20
90
0
SEQEND
0
POLYLINE
8
0
6
CONTINUOUS
66
1
70
1
0
VERTEX
8
0
10
286
20
90
0
VERTEX
8
0
10
296
20
90
0
VERTEX
8
0
10
296
20
150
0
VERTEX
8
0
10
286
20
150
0
VERTEX
8
0
10
274
20
150
0
VERTEX
8
0
10
274
20
90
0
SEQEND
0
POLYLINE
8
0
6
CONTINUOUS
66
1
70
1
0
VERTEX
8
0
10
323
20
90
0
VERTEX
8
0
10
333
20
90
0
VERTEX
8
0
10
333
20
150
0
VERTEX
8
0
10
323
20
150
0
VERTEX
8
0
10
311
20
150
0
VERTEX
8
0
10
311
20
90
0
SEQEND
0
POLYLINE
8
0
6
CONTINUOUS
66
1
70
1
0
VERTEX
8
0
10
360
20
90
0
VERTEX
8
0
10
370
20
90
0
VERTEX
8
0
10
370
20
150
0
VERTEX
8
0
10
360
20
150
0
VERTEX
8
0
10
348
20
150
0
VERTEX
8
0
10
348
20
90
0
SEQEND
0
POLYLINE
8
0
6
CONTINUOUS
66
1
70
1
0
VERTEX
8
0
10
397
20
90
0
VERTEX
8
0
10
407
20
90
0
VERTEX
8
0
10
407
20
150
0
VERTEX
8
0
10
397
20
150
0
VERTEX
8
0
10
385
20
150
0
VERTEX
8
0
10
385
20
90
0
SEQEND
0
POLYLINE
8
0
6
CONTINUOUS
66
1
70
1
0
VERTEX
8
0
10
434
20
90
0
VERTEX
8
0
10
444
20
90
0
VERTEX
8
0
10
444
20
150
0
VERTEX
8
0
10
434
20
150
0
VERTEX
8
0
10
422
20
150
0
VERTEX
8
0
10
422
20
90
0
SEQEND
0
POLYLINE
8
0
6
CONTINUOUS
66
1
70
1
0
VERTEX
8
0
10
471
20
90
0
VERTEX
8
0
10
481
20
90
0
VERTEX
8
0
10
481
20
150
0
VERTEX
8
0
10
471
20
150
0
VERTEX
8
0
10
459
20
150
0
VERTEX
8
0
10
459
20
90
0
SEQEND
0
POLYLINE
8
0
6
CONTINUOUS
66
1
70
1
0
VERTEX
8
0
10
508
20
90
0
VERTEX
8
0
10
518
20
90
0
VERTEX
8
0
10
518
20
150
0
VERTEX
8
0
10
508
20
150
0
VERTEX
8
0
10
496
20
150
0
VERTEX
8
0
10
496
20
90
0
SEQEND
0
POLYLINE
8
0
6
CONTINUOUS
66
1
70
1
0
VERTEX
8
0
10
545
20
90
0
VERTEX
8
0
10
555
20
90
0
VERTEX
8
0
10
555
20
150
0
VERTEX
8
0
10
545
20
150
0
VERTEX
8
0
10
533
20
150
0
VERTEX
8
0
10
533
20
90
0
SEQEND
0
POLYLINE
8
0
6
CONTINUOUS
66
1
70
1
0
VERTEX
8
0
10
582
20
90
0
VERTEX
8
0
10
592
20
90
0
VERTEX
8
0
10
592
20
150
0
VERTEX
8
0
10
582
20
150
0
VERTEX
8
0
10
570
20
150
0
VERTEX
8
0
10
570
20
90
0
SEQEND
0
POLYLINE
8
0
6
CONTINUOUS
66
1
70
1
0
VERTEX
8
0
10
619
20
90
0
VERTEX
8
0
10
629
20
90
0
VERTEX
8
0
10
629
20
150
0
VERTEX
8
0
10
619
20
150
0
VERTEX
8
0
10
607
20
150
0
VERTEX
8
0
10
607
20
90
0
SEQEND
0
POLYLINE
8
0
6
CONTINUOUS
66
1
70
1
0
VERTEX
8
0
10
656
20
90
0
VERTEX
8
0
10
666
20
90
0
VERTEX
8
0
10
666
20
150
0
VERTEX
8
0
10
656
20
150
0
VERTEX
8
0
10
644
20
150
0
VERTEX
8
0
10
644
20
90
0
SEQEND
0
POLYLINE
8
0
6
CONTINUOUS
66
1
70
1
0
VERTEX
8
0
10
693
20
90
0
VERTEX
8
0
10
703
20
90
0
VERTEX
8
0
10
703
20
150
0
VERTEX
8
0
10
693
20
150
0
VERTEX
8
0
10
681
20
150
0
VERTEX
8
0
10
681
20
90
0
SEQEND
0
POLYLINE
8
0
6
CONTINUOUS
66
1
70
1
0
VERTEX
8
0
10
730
20
90
0
VERTEX
8
0
10
740
20
90
0
VERTEX
8
0
10
740
20
150
0
VERTEX
8
0
10
730
20
150
0
VERTEX
8
0
10
718
20
150
0
VERTEX
8
0
10
718
20
90
0
SEQEND
0
POLYLINE
8
0
6
CONTINUOUS
66
1
70
1
0
VERTEX
8
0
10
767
20
90
0
VERTEX
8
0
10
777
20
90
0
VERTEX
8
0
10
777
20
150
0
VERTEX
8
0
10
767
20
150
0
VERTEX
8
0
10
755
20
150
0
VERTEX
8
0
10
755
20
90
0
SEQEND
0
POLYLINE
8
0
6
CONTINUOUS
66
1
70
1
0
VERTEX
8
0
10
804
20
90
0
VERTEX
8
0
10
814
20
90
0
VERTEX
8
0
10
814
20
150
0
VERTEX
8
0
10
804
20
150
0
VERTEX
8
0
10
792
20
150
0
VERTEX
8
0
10
792
20
90
0
SEQEND
0
POLYLINE
8
0
6
CONTINUOUS
66
1
70
1
0
VERTEX
8
0
10
841
20
90
0
VERTEX
8
0
10
851
20
90
0
VERTEX
8
0
10
851
20
150
0
VERTEX
8
0
10
841
20
150
0
VERTEX
8
0
10
829
20
150
0
VERTEX
8
0
10
829
20
90
0
SEQEND
0
POLYLINE
8
0
6
CONTINUOUS
66
1
70
1
0
VERTEX
8
0
10
878
20
90
0
VERTEX
8
0
10
888
20
90
0
VERTEX
8
0
10
888
20
150
0
VERTEX
8
0
10
878
20
150
0
VERTEX
8
0
10
866
20
150
0
VERTEX
8
0
10
866
20
90
0
SEQEND
0
POLYLINE
8
0
6
CONTINUOUS
66
1
70
1
0
VERTEX
8
0
10
915
20
90
0
VERTEX
8
0
10
925
20
90
0
VERTEX
8
0
10
925
20
150
0
VERTEX
8
0
10
915
20
150
0
VERTEX
8
0
10
903
20
150
0
VERTEX
8
0
10
903
20
90
0
SEQEND
0
POLYLINE
8
0
6
CONTINUOUS
66
1
70
1
0
VERTEX
8
0
10
952
20
90
0
VERTEX
8
0
10
962
20
90
0
VERTEX
8
0
10
962
20
150
0
VERTEX
8
0
10
952
20
150
0
VERTEX
8
0
10
940
20
150
0
VERTEX
8
0
10
940
20
90
0
SEQEND
0
POLYLINE
8
0
6
CONTINUOUS
66
1
70
1
0
VERTEX
8
0
10
989
20
90
0
VERTEX
8
0
10
999
20
90
0
VERTEX
8
0
10
999
20
150
0
VERTEX
8
0
10
989
20
150
0
VERTEX
8
0
10
977
20
150
0
VERTEX
8
0
10
977
20
90
0
SEQEND
0
POLYLINE
8
0
6
CONTINUOUS
66
1
70
1
0
VERTEX
8
0
10
1026
20
90
0
VERTEX
8
0
10
1036
20
90
0
VERTEX
8
0
10
1036
20
150
0
VERTEX
8
0
10
1026
20
150
0
VERTEX
8
0
10
1014
20
150
0
VERTEX
8
0
10
1014
20
90
0
SEQEND
0
POLYLINE
8
0
6
CONTINUOUS
66
1
70
1
0
VERTEX
8
0
10
1063
20
90
0
VERTEX
8
0
10
1073
20
90
0
VERTEX
8
0
10
1073
20
150
0
VERTEX
8
0
10
1063
20
150
0
VERTEX
8
0
10
1051
20
150
0
VERTEX
8
0
10
1051
20
90
0
SEQEND
0
POLYLINE
8
0
6
CONTINUOUS
66
1
70
1
0
VERTEX
8
0
10
1100
20
90
0
VERTEX
8
0
10
1110
20
90
0
VERTEX
8
0
10
1110
20
150
0
VERTEX
8
0
10
1100
20
150
0
VERTEX
8
0
10
1088
20
150
0
VERTEX
8
0
10
1088
20
90
0
SEQEND
0
POLYLINE
8
0
6
CONTINUOUS
66
1
70
1
0
VERTEX
8
0
10
1137
20
90
0
VERTEX
8
0
10
1147
20
90
0
VERTEX
8
0
10
1147
20
150
0
VERTEX
8
0
10
1137
20
150
0
VERTEX
8
0
10
1125
20
150
0
VERTEX
8
0
10
1125
20
90
0
SEQEND
0
POLYLINE
8
0
6
CONTINUOUS
66
1
70
1
0
VERTEX
8
0
10
1174
20
90
0
VERTEX
8
0
10
1184
20
90
0
VERTEX
8
0
10
1184
20
150
0
VERTEX
8
0
10
1174
20
150
0
VERTEX
8
0
10
1162
20
150
0
VERTEX
8
0
10
1162
20
90
0
SEQEND
0
POLYLINE
8
0
6
CONTINUOUS
66
1
70
1
0
VERTEX
8
0
10
27
20
165
0
VERTEX
8
0
10
37
20
165
0
VERTEX
8
0
10
37
20
225
0
VERTEX
8
0
10
27
20
225
0
VERTEX
8
0
10
15
20
225
0
VERTEX
8
0
10
15
20
165
0
SEQEND
0
POLYLINE
8
0
6
CONTINUOUS
66
1
70
1
0
VERTEX
8
0
10
64
20
165
0
VERTEX
8
0
10
74
20
165
0
VERTEX
8
0
10
74
20
225
0
VERTEX
8
0
10
64
20
225
0
VERTEX
8
0
10
52
20
225
0
VERTEX
8
0
10
52
20
165
0
SEQEND
0
POLYLINE
8
0
6
CONTINUOUS
66
1
70
1
0
VERTEX
8
0
10
101
20
165
0
VERTEX
8
0
10
111
20
165
0
VERTEX
8
0
10
111
20
225
0
VERTEX
8
0
10
101
20
225
0
VERTEX
8
0
10
89
20
225
0
VERTEX
8
0
10
89
20
165
0
SEQEND
0
POLYLINE
8
0
6
CONTINUOUS
66
1
70
1
0
VERTEX
8
0
10
138
20
165
0
VERTEX
8
0
10
148
20
165
0
VERTEX
8
0
10
148
20
225
0
VERTEX
8
0
10
138
20
225
0
VERTEX
8
0
10
126
20
225
0
VERTEX
8
0
10
126
20
165
0
SEQEND
0
POLYLINE
8
0
6
CONTINUOUS
66
1
70
1
0
VERTEX
8
0
10
175
20
165
0
VERTEX
8
0
10
185
20
165
0
VERTEX
8
0
10
185
20
225
0
VERTEX
8
0
10
175
20
225
0
VERTEX
8
0
10
163
20
225
0
VERTEX
8
0
10
163
20
165
0
SEQEND
0
POLYLINE
8
0
6
CONTINUOUS
66
1
70
1
0
VERTEX
8
0
10
212
20
165
0
VERTEX
8
0
10
222
20
165
0
VERTEX
8
0
10
222
20
225
0
VERTEX
8
0
10
212
20
225
0
VERTEX
8
0
10
200
20
225
0
VERTEX
8
0
10
200
20
165
0
SEQEND
0
POLYLINE
8
0
6
CONTINUOUS
66
1
70
1
0
VERTEX
8
0
10
249
20
165
0
VERTEX
8
0
10
259
20
165
0
VERTEX
8
0
10
259
20
225
0
VERTEX
8
0
10
249
20
225
0
VERTEX
8
0
10
237
20
225
0
VERTEX
8
0
10
237
20
165
0
SEQEND
0
POLYLINE
8
0
6
CONTINUOUS
66
1
70
1
0
VERTEX
8
0
10
286
20
165
0
VERTEX
8
0
10
296
20
165
0
VERTEX
8
0
10
296
20
225
0
VERTEX
8
0
10
286
20
225
0
VERTEX
8
0
10
274
20
225
0
VERTEX
8
0
10
274
20
165
0
SEQEND
0
POLYLINE
8
0
6
CONTINUOUS
66
1
70
1
0
VERTEX
8
0
10
323
20
165
0
VERTEX
8
0
10
333
20
165
0
VERTEX
8
0
10
333
20
225
0
VERTEX
8
0
10
323
20
225
0
VERTEX
8
0
10
311
20
225
0
VERTEX
8
0
10
311
20
165
0
SEQEND
0
POLYLINE
8
0
6
CONTINUOUS
66
1
70
1
0
VERTEX
8
0
10
360
20
165
0
VERTEX
8
0
10
370
20
165
0
VERTEX
8
0
10
370
20
225
0
VERTEX
8
0
10
360
20
225
0
VERTEX
8
0
10
348
20
225
0
VERTEX
8
0
10
348
20
165
0
SEQEND
0
POLYLINE
8
0
6
CONTINUOUS
66
1
70
1
0
VERTEX
8
0
10
397
20
165
0
VERTEX
8
0
10
407
20
165
0
VERTEX
8
0
10
407
20
225
0
VERTEX
8
0
10
397
20
225
0
VERTEX
8
0
10
385
20
225
0
VERTEX
8
0
10
385
20
165
0
SEQEND
0
POLYLINE
8
0
6
CONTINUOUS
66
1
70
1
0
VERTEX
8
0
10
434
20
165
0
VERTEX
8
0
10
444
20
165
0
VERTEX
8
0
10
444
20
225
0
VERTEX
8
0
10
434
20
225
0
VERTEX
8
0
10
422
20
225
0
VERTEX
8
0
10
422
20
165
0
SEQEND
0
POLYLINE
8
0
6
CONTINUOUS
66
1
70
1
0
VERTEX
8
0
10
471
20
165
0
VERTEX
8
0
10
481
20
165
0
VERTEX
8
0
10
481
20
225
0
VERTEX
8
0
10
471
20
225
0
VERTEX
8
0
10
459
20
225
0
VERTEX
8
0
10
459
20
165
0
SEQEND
0
POLYLINE
8
0
6
CONTINUOUS
66
1
70
1
0
VERTEX
8
0
10
508
20
165
0
VERTEX
8
0
10
518
20
165
0
VERTEX
8
0
10
518
20
225
0
VERTEX
8
0
10
508
20
225
0
VERTEX
8
0
10
496
20
225
0
VERTEX
8
0
10
496
20
165
0
SEQEND
0
POLYLINE
8
0
6
CONTINUOUS
66
1
70
1
0
VERTEX
8
0
10
545
20
165
0
VERTEX
8
0
10
555
20
165
0
VERTEX
8
0
10
555
20
225
0
VERTEX
8
0
10
545
20
225
0
VERTEX
8
0
10
533
20
225
0
VERTEX
8
0
10
533
20
165
0
SEQEND
0
POLYLINE
8
0
6
CONTINUOUS
66
1
70
1
0
VERTEX
8
0
10
582
20
165
0
VERTEX
8
0
10
592
20
165
0
VERTEX
8
0
10
592
20
225
0
VERTEX
8
0
10
582
20
225
0
VERTEX
8
0
10
570
20
225
0
VERTEX
8
0
10
570
20
165
0
SEQEND
0
POLYLINE
8
0
6
CONTINUOUS
66
1
70
1
0
VERTEX
8
0
10
619
20
165
0
VERTEX
8
0
10
629
20
165
0
VERTEX
8
0
10
629
20
225
0
VERTEX
8
0
10
619
20
225
0
VERTEX
8
0
10
607
20
225
0
VERTEX
8
0
10
607
20
165
0
SEQEND
0
POLYLINE
8
0
6
CONTINUOUS
66
1
70
1
0
VERTEX
8
0
10
656
20
165
0
VERTEX
8
0
10
666
20
165
0
VERTEX
8
0
10
666
20
225
0
VERTEX
8
0
10
656
20
225
0
VERTEX
8
0
10
644
20
225
0
VERTEX
8
0
10
644
20
165
0
SEQEND
0
POLYLINE
8
0
6
CONTINUOUS
66
1
70
1
0
VERTEX
8
0
10
693
20
165
0
VERTEX
8
0
10
703
20
165
0
VERTEX
8
0
10
703
20
225
0
VERTEX
8
0
10
693
20
225
0
VERTEX
8
0
10
681
20
225
0
VERTEX
8
0
10
681
20
165
0
SEQEND
0
POLYLINE
8
0
6
CONTINUOUS
66
1
70
1
0
VERTEX
8
0
10
730
20
165
0
VERTEX
8
0
10
740
20
165
0
VERTEX
8
0
10
740
20
225
0
VERTEX
8
0
10
730
20
225
0
VERTEX
8
0
10
718
20
225
0
VERTEX
8
0
10
718
20
165
0
SEQEND
0
POLYLINE
8
0
6
CONTINUOUS
66
1
70
1
0
VERTEX
8
0
10
767
20
165
0
VERTEX
8
0
10
777
20
165
0
VERTEX
8
0
10
777
20
225
0
VERTEX
8
0
10
767
20
225
0
VERTEX
8
0
10
755
20
225
0
VERTEX
8
0
10
755
20
165
0
SEQEND
0
POLYLINE
8
0
6
CONTINUOUS
66
1
70
1
0
VERTEX
8
0
10
804
20
165
0
VERTEX
8
0
10
814
20
165
0
VERTEX
8
0
10
814
20
225
0
VERTEX
8
0
10
804
20
225
0
VERTEX
8
0
10
792
20
225
0
VERTEX
8
0
10
792
20
165
0
SEQEND
0
POLYLINE
8
0
6
CONTINUOUS
66
1
70
1
0
VERTEX
8
0
10
841
20
165
0
VERTEX
8
0
10
851
20
165
0
VERTEX
8
0
10
851
20
225
0
VERTEX
8
0
10
841
20
225
0
VERTEX
8
0
10
829
20
225
0
VERTEX
8
0
10
829
20
165
0
SEQEND
0
POLYLINE
8
0
6
CONTINUOUS
66
1
70
1
0
VERTEX
8
0
10
878
20
165
0
VERTEX
8
0
10
888
20
165
0
VERTEX
8
0
10
888
20
225
0
VERTEX
8
0
10
878
20
225
0
VERTEX
8
0
10
866
20
225
0
VERTEX
8
0
10
866
20
165
0
SEQEND
0
POLYLINE
8
0
6
CONTINUOUS
66
1
70
1
0
VERTEX
8
0
10
915
20
165
0
VERTEX
8
0
10
925
20
165
0
VERTEX
8
0
10
925
20
225
0
VERTEX
8
0
10
915
20
225
0
VERTEX
8
0
10
903
20
225
0
VERTEX
8
0
10
903
20
165
0
SEQEND
0
POLYLINE
8
0
6
CONTINUOUS
66
1
70
1
0
VERTEX
8
0
10
952
20
165
0
VERTEX
8
0
10
962
20
165
0
VERTEX
8
0
10
962
20
225
0
VERTEX
8
0
10
952
20
225
0
VERTEX
8
0
10
940
20
225
0
VERTEX
8
0
10
940
20
165
0
SEQEND
0
POLYLINE
8
0
6
CONTINUOUS
66
1
70
1
0
VERTEX
8
0
10
989
20
165
0
VERTEX
8
0
10
999
20
165
0
VERTEX
8
0
10
999
20
225
0
VERTEX
8
0
10
989
20
225
0
VERTEX
8
0
10
977
20
225
0
VERTEX
8
0
10
977
20
165
0
SEQEND
0
POLYLINE
8
0
6
CONTINUOUS
66
1
70
1
0
VERTEX
8
0
10
1026
20
165
0
VERTEX
8
0
10
1036
20
165
0
VERTEX
8
0
10
1036
20
225
0
VERTEX
8
0
10
1026
20
225
0
VERTEX
8
0
10
1014
20
225
0
VERTEX
8
0
10
1014
20
165
0
SEQEND
0
POLYLINE
8
0
6
CONTINUOUS
66
1
70
1
0
VERTEX
8
0
10
1063
20
165
0
VERTEX
8
0
10
1073
20
165
0
VERTEX
8
0
10
1073
20
225
0
VERTEX
8
0
10
1063
20
225
0
VERTEX
8
0
10
1051
20
225
0
VERTEX
8
0
10
1051
20
165
0
SEQEND
0
POLYLINE
8
0
6
CONTINUOUS
66
1
70
1
0
VERTEX
8
0
10
1100
20
165
0
VERTEX
8
0
10
1110
20
165
0
VERTEX
8
0
10
1110
20
225
0
VERTEX
8
0
10
1100
20
225
0
VERTEX
8
0
10
1088
20
225
0
VERTEX
8
0
10
1088
20
165
0
SEQEND
0
POLYLINE
8
0
6
CONTINUOUS
66
1
70
1
0
VERTEX
8
0
10
1137
20
165
0
VERTEX
8
0
10
1147
20
165
0
VERTEX
8
0
10
1147
20
225
0
VERTEX
8
0
10
1137
20
225
0
VERTEX
8
0
10
1125
20
225
0
VERTEX
8
0
10
1125
20
165
0
SEQEND
0
POLYLINE
8
0
6
CONTINUOUS
66
1
70
1
0
VERTEX
8
0
10
1174
20
165
0
VERTEX
8
0
10
1184
20
165
0
VERTEX
8
0
10
1184
20
225
0
VERTEX
8
0
10
1174
20
225
0
VERTEX
8
0
10
1162
20
225
0
VERTEX
8
0
10
1162
20
165
0
SEQEND
0
POLYLINE
8
0
6
CONTINUOUS
66
1
70
1
0
VERTEX
8
0
10
27
20
240
0
VERTEX
8
0
10
37
20
240
0
VERTEX
8
0
10
37
20
300
0
VERTEX
8
0
10
27
20
300
0
VERTEX
8
0
10
15
20
300
0
VERTEX
8
0
10
15
20
240
0
SEQEND
0
POLYLINE
8
0
6
CONTINUOUS
66
1
70
1
0
VERTEX
8
0
10
64
20
240
0
VERTEX
8
0
10
74
20
240
0
VERTEX
8
0
10
74
20
300
0
VERTEX
8
0
10
64
20
300
0
VERTEX
8
0
10
52
20
300
0
VERTEX
8
0
10
52
20
240
0
SEQEND
0
POLYLINE
8
0
6
CONTINUOUS
66
1
70
1
0
VERTEX
8
0
10
101
20
240
0
VERTEX
8
0
10
111
20
240
0
VERTEX
8
0
10
111
20
300
0
VERTEX
8
0
10
101
20
300
0
VERTEX
8
0
10
89
20
300
0
VERTEX
8
0
10
89
20
240
0
SEQEND
0
POLYLINE
8
0
6
CONTINUOUS
66
1
70
1
0
VERTEX
8
0
10
138
20
240
0
VERTEX
8
0
10
148
20
240
0
VERTEX
8
0
10
148
20
300
0
VERTEX
8
0
10
138
20
300
0
VERTEX
8
0
10
126
20
300
0
VERTEX
8
0
10
126
20
240
0
SEQEND
0
POLYLINE
8
0
6
CONTINUOUS
66
1
70
1
0
VERTEX
8
0
10
175
20
240
0
VERTEX
8
0
10
185
20
240
0
VERTEX
8
0
10
185
20
300
0
VERTEX
8
0
10
175
20
300
0
VERTEX
8
0
10
163
20
300
0
VERTEX
8
0
10
163
20
240
0
SEQEND
0
POLYLINE
8
0
6
CONTINUOUS
66
1
70
1
0
VERTEX
8
0
10
56
20
398.9999021
42
1
0
VERTEX
8
0
10
44
20
398.9999021
0
VERTEX
8
0
10
44
20
350.9999021
42
1
0
VERTEX
8
0
10
56
20
350.9999021
0
SEQEND
0
POLYLINE
8
0
6
CONTINUOUS
66
1
70
1
0
VERTEX
8
0
10
66
20
407.4146119
42
1
0
VERTEX
8
0
10
54
20
407.4146119
0
VERTEX
8
0
10
54
20
359.4146119
42
1
0
VERTEX
8
0
10
66
20
359.4146119
0
SEQEND
0
POLYLINE
8
0
6
CONTINUOUS
66
1
70
1
0
VERTEX
8
0
10
76
20
408.0928763
42
1
0
VERTEX
8
0
10
64
20
408.0928763
0
VERTEX
8
0
10
64
20
360.0928763
42
1
0
VERTEX
8
0
10
76
20
360.0928763
0
SEQEND
0
POLYLINE
8
0
6
CONTINUOUS
66
1
70
1
0
VERTEX
8
0
10
86
20
400.4111021
42
1
0
VERTEX
8
0
10
74
20
400.4111021
0
VERTEX
8
0
10
74
20
352.4111021
42
1
0
VERTEX
8
0
10
86
20
352.4111021
0
SEQEND
0
POLYLINE
8
0
6
CONTINUOUS
66
1
70
1
0
VERTEX
8
0
10
96
20
391.4318771
42
1
0
VERTEX
8
0
10
84
20
391.4318771
0
VERTEX
8
0
10
84
20
343.4318771
42
1
0
VERTEX
8
0
10
96
20
343.4318771
0
SEQEND
0
POLYLINE
8
0
6
CONTINUOUS
66
1
70
1
0
VERTEX
8
0
10
106
20
389.4106593
42
1
0
VERTEX
8
0
10
94
20
389.4106593
0
VERTEX
8
0
10
94
20
341.4106593
42
1
0
VERTEX
8
0
10
106
20
341.4106593
0
SEQEND
0
POLYLINE
8
0
6
CONTINUOUS
66
1
70
1
0
VERTEX
8
0
10
116
20
396.2057471
42
1
0
VERTEX
8
0
10
104
20
396.2057471
0
VERTEX
8
0
10
104
20
348.2057471
42
1
0
VERTEX
8
0
10
116
20
348.2057471
0
SEQEND
0
POLYLINE
8
0
6
CONTINUOUS
66
1
70
1
0
VERTEX
8
0
10
126
20
405.5697681
42
1
0
VERTEX
8
0
10
114
20
405.5697681
0
VERTEX
8
0
10
114
20
357.5697681
42
1
0
VERTEX
8
0
10
126
20
357.5697681
0
SEQEND
0
POLYLINE
8
0
6
CONTINUOUS
66
1
70
1
0
VERTEX
8
0
10
136
20
408.8934845
42
1
0
VERTEX
8
0
10
124
20
408.8934845
0
VERTEX
8
0
10
124
20
360.8934845
42
1
0
VERTEX
8
0
10
136
20
360.8934845
0
SEQEND
0
POLYLINE
8
0
6
CONTINUOUS
66
1
70
1
0
VERTEX
8
0
10
146
20
403.1210869
42
1
0
VERTEX
8
0
10
134
20
403.1210869
0
VERTEX
8
0
10
134
20
355.1210869
42
1
0
VERTEX
8
0
10
146
20
355.1210869
0
SEQEND
0
POLYLINE
8
0
6
CONTINUOUS
66
1
70
1
0
VERTEX
8
0
10
156
20
393.559691
42
1
0
VERTEX
8
0
10
144
20
393.559691
0
VERTEX
8
0
10
144
20
345.559691
42
1
0
VERTEX
8
0
10
156
20
345.559691
0
SEQEND
0
POLYLINE
8
0
6
CONTINUOUS
66
1
70
1
0
VERTEX
8
0
10
166
20
389
42
1
0
VERTEX
8
0
10
154
20
389
0
VERTEX
8
0
10
154
20
341
42
1
0
VERTEX
8
0
10
166
20
341
0
SEQEND
0
POLYLINE
8
0
6
CONTINUOUS
66
1
70
1
0
VERTEX
8
0
10
176
20
393.6341729
42
1
0
VERTEX
8
0
10
164
20
393.6341729
0
VERTEX
8
0
10
164
20
345.6341729
42
1
0
VERTEX
8
0
10
176
20
345.6341729
0
SEQEND
0
POLYLINE
8
0
6
CONTINUOUS
66
1
70
1
0
VERTEX
8
0
10
186
20
403.2015724
42
1
0
VERTEX
8
0
10
174
20
403.2015724
0
VERTEX
8
0
10
174
20
355.2015724
42
1
0
VERTEX
8
0
10
186
20
355.2015724
0
SEQEND
0
POLYLINE
8
0
6
CONTINUOUS
66
1
70
1
0
VERTEX
8
0
10
196
20
408.9059756
42
1
0
VERTEX
8
0
10
184
20
408.9059756
0
VERTEX
8
0
10
184
20
360.9059756
42
1
0
VERTEX
8
0
10
196
20
360.9059756
0
SEQEND
0
POLYLINE
8
0
6
CONTINUOUS
66
1
70
1
0
VERTEX
8
0
10
206
20
405.5027805
42
1
0
VERTEX
8
0
10
194
20
405.5027805
0
VERTEX
8
0
10
194
20
357.5027805
42
1
0
VERTEX
8
0
10
206
20
357.5027805
0
SEQEND
0
POLYLINE
8
0
6
CONTINUOUS
66
1
70
1
0
VERTEX
8
0
10
216
20
396.1208689
42
1
0
VERTEX
8
0
10
204
20
396.1208689
0
VERTEX
8
0
10
204
20
348.1208689
42
1
0
VERTEX
8
0
10
216
20
348.1208689
0
SEQEND
0
POLYLINE
8
0
6
CONTINUOUS
66
1
70
1
0
VERTEX
8
0
10
226
20
389.3859271
42
1
0
VERTEX
8
0
10
214
20
389.3859271
0
VERTEX
8
0
10
214
20
341.3859271
42
1
0
VERTEX
8
0
10
226
20
341.3859271
0
SEQEND
0
POLYLINE
8
0
6
CONTINUOUS
66
1
70
1
0
VERTEX
8
0
10
236
20
391.4900296
42
1
0
VERTEX
8
0
10
224
20
391.4900296
0
VERTEX
8
0
10
224
20
343.4900296
42
1
0
VERTEX
8
0
10
236
20
343.4900296
0
SEQEND
0
POLYLINE
8
0
6
CONTINUOUS
66
1
70
1
0
VERTEX
8
0
10
246
20
400.4986742
42
1
0
VERTEX
8
0
10
234
20
400.4986742
0
VERTEX
8
0
10
234
20
352.4986742
42
1
0
VERTEX
8
0
10
246
20
352.4986742
0
SEQEND
0
POLYLINE
8
0
6
CONTINUOUS
66
1
70
1
0
VERTEX
8
0
10
256
20
408.1293546
42
1
0
VERTEX
8
0
10
244
20
408.1293546
0
VERTEX
8
0
10
244
20
360.1293546
42
1
0
VERTEX
8
0
10
256
20
360.1293546
0
SEQEND
0
POLYLINE
8
0
6
CONTINUOUS
66
1
70
1
0
VERTEX
8
0
10
266
20
407.3664585
42
1
0
VERTEX
8
0
10
254
20
407.3664585
0
VERTEX
8
0
10
254
20
359.3664585
42
1
0
VERTEX
8
0
10
266
20
359.3664585
0
SEQEND
0
POLYLINE
8
0
6
CONTINUOUS
66
1
70
1
0
VERTEX
8
0
10
276
20
398.911389
42
1
0
VERTEX
8
0
10
264
20
398.911389
0
VERTEX
8
0
10
264
20
350.911389
42
1
0
VERTEX
8
0
10
276
20
350.911389
0
SEQEND
0
POLYLINE
8
0
6
CONTINUOUS
66
1
70
1
0
VERTEX
8
0
10
286
20
390.537698
42
1
0
VERTEX
8
0
10
274
20
390.537698
0
VERTEX
8
0
10
274
20
342.537698
42
1
0
VERTEX
8
0
10
286
20
342.537698
0
SEQEND
0
POLYLINE
8
0
6
CONTINUOUS
66
1
70
1
0
VERTEX
8
0
10
296
20
389.9441184
42
1
0
VERTEX
8
0
10
284
20
389.9441184
0
VERTEX
8
0
10
284
20
341.9441184
42
1
0
VERTEX
8
0
10
296
20
341.9441184
0
SEQEND
0
POLYLINE
8
0
6
CONTINUOUS
66
1
70
1
0
VERTEX
8
0
10
306
20
397.6763846
42
1
0
VERTEX
8
0
10
294
20
397.6763846
0
VERTEX
8
0
10
294
20
349.6763846
42
1
0
VERTEX
8
0
10
306
20
349.6763846
0
SEQEND
0
POLYLINE
8
0
6
CONTINUOUS
66
1
70
1
0
VERTEX
8
0
10
316
20
406.6254866
42
1
0
VERTEX
8
0
10
304
20
406.6254866
0
VERTEX
8
0
10
304
20
358.6254866
42
1
0
VERTEX
8
0
10
316
20
358.6254866
0
SEQEND
0
POLYLINE
8
0
6
CONTINUOUS
66
1
70
1
0
VERTEX
8
0
10
326
20
408.5636613
42
1
0
VERTEX
8
0
10
314
20
408.5636613
0
VERTEX
8
0
10
314
20
360.5636613
42
1
0
VERTEX
8
0
10
326
20
360.5636613
0
SEQEND
0
POLYLINE
8
0
6
CONTINUOUS
66
1
70
1
0
VERTEX
8
0
10
336
20
401.7089599
42
1
0
VERTEX
8
0
10
324
20
401.7089599
0
VERTEX
8
0
10
324
20
353.7089599
42
1
0
VERTEX
8
0
10
336
20
353.7089599
0
SEQEND
0
POLYLINE
8
0
6
CONTINUOUS
66
1
70
1
0
VERTEX
8
0
10
346
20
392.3635632
42
1
0
VERTEX
8
0
10
334
20
392.3635632
0
VERTEX
8
0
10
334
20
344.3635632
42
1
0
VERTEX
8
0
10
346
20
344.3635632
0
SEQEND
0
POLYLINE
8
0
6
CONTINUOUS
66
1
70
1
0
VERTEX
8
0
10
356
20
389.1195858
42
1
0
VERTEX
8
0
10
344
20
389.1195858
0
VERTEX
8
0
10
344
20
341.1195858
42
1
0
VERTEX
8
0
10
356
20
341.1195858
0
SEQEND
0
POLYLINE
8
0
6
CONTINUOUS
66
1
70
1
0
VERTEX
8
0
10
366
20
394.9595256
42
1
0
VERTEX
8
0
10
354
20
394.9595256
0
VERTEX
8
0
10
354
20
346.9595256
42
1
0
VERTEX
8
0
10
366
20
346.9595256
0
SEQEND
0
POLYLINE
8
0
6
CONTINUOUS
66
1
70
1
0
VERTEX
8
0
10
376
20
404.5141689
42
1
0
VERTEX
8
0
10
364
20
404.5141689
0
VERTEX
8
0
10
364
20
356.5141689
42
1
0
VERTEX
8
0
10
376
20
356.5141689
0
SEQEND
0
POLYLINE
8
0
6
CONTINUOUS
66
1
70
1
0
VERTEX
8
0
10
386
20
408.9990207
42
1
0
VERTEX
8
0
10
374
20
408.9990207
0
VERTEX
8
0
10
374
20
360.9990207
42
1
0
VERTEX
8
0
10
386
20
360.9990207
0
SEQEND
0
POLYLINE
8
0
6
CONTINUOUS
66
1
70
1
0
VERTEX
8
0
10
396
20
404.2907289
42
1
0
VERTEX
8
0
10
384
20
404.2907289
0
VERTEX
8
0
10
384
20
356.2907289
42
1
0
VERTEX
8
0
10
396
20
356.2907289
0
SEQEND
0
POLYLINE
8
0
6
CONTINUOUS
66
1
70
1
0
VERTEX
8
0
10
406
20
394.7180754
42
1
0
VERTEX
8
0
10
394
20
394.7180754
0
VERTEX
8
0
10
394
20
346.7180754
42
1
0
VERTEX
8
0
10
406
20
346.7180754
0
SEQEND
0
POLYLINE
8
0
6
CONTINUOUS
66
1
70
1
0
VERTEX
8
0
10
416
20
389.0821135
42
1
0
VERTEX
8
0
10
404
20
389.0821135
0
VERTEX
8
0
10
404
20
341.0821135
42
1
0
VERTEX
8
0
10
416
20
341.0821135
0
SEQEND
0
POLYLINE
8
0
6
CONTINUOUS
66
1
70
1
0
VERTEX
8
0
10
426
20
392.5645207
42
1
0
VERTEX
8
0
10
414
20
392.5645207
0
VERTEX
8
0
10
414
20
344.5645207
42
1
0
VERTEX
8
0
10
426
20
344.5645207
0
SEQEND
0
POLYLINE
8
0
6
CONTINUOUS
66
1
70
1
0
VERTEX
8
0
10
436
20
401.9635879
42
1
0
VERTEX
8
0
10
424
20
401.9635879
0
VERTEX
8
0
10
424
20
353.9635879
42
1
0
VERTEX
8
0
10
436
20
353.9635879
0
SEQEND
0
POLYLINE
8
0
6
CONTINUOUS
66
1
70
1
0
VERTEX
8
0
10
446
20
408.6378559
42
1
0
VERTEX
8
0
10
434
20
408.6378559
0
VERTEX
8
0
10
434
20
360.6378559
42
1
0
VERTEX
8
0
10
446
20
360.6378559
0
SEQEND
0
POLYLINE
8
0
6
CONTINUOUS
66
1
70
1
0
VERTEX
8
0
10
456
20
406.4510337
42
1
0
VERTEX
8
0
10
444
20
406.4510337
0
VERTEX
8
0
10
444
20
358.4510337
42
1
0
VERTEX
8
0
10
456
20
358.4510337
0
SEQEND
0
POLYLINE
8
0
6
CONTINUOUS
66
1
70
1
0
VERTEX
8
0
10
466
20
397.4136754
42
1
0
VERTEX
8
0
10
454
20
397.4136754
0
VERTEX
8
0
10
454
20
349.4136754
42
1
0
VERTEX
8
0
10
466
20
349.4136754
0
SEQEND
0
POLYLINE
8
0
6
CONTINUOUS
66
1
70
1
0
VERTEX
8
0
10
476
20
389.8346866
42
1
0
VERTEX
8
0
10
464
20
389.8346866
0
VERTEX
8
0
10
464
20
341.8346866
42
1
0
VERTEX
8
0
10
476
20
341.8346866
0
SEQEND
0
POLYLINE
8
0
6
CONTINUOUS
66
1
70
1
0
VERTEX
8
0
10
486
20
390.6821546
42
1
0
VERTEX
8
0
10
474
20
390.6821546
0
VERTEX
8
0
10
474
20
342.6821546
42
1
0
VERTEX
8
0
10
486
20
342.6821546
0
SEQEND
0
POLYLINE
8
0
6
CONTINUOUS
66
1
70
1
0
VERTEX
8
0
10
496
20
399.1769213
42
1
0
VERTEX
8
0
10
484
20
399.1769213
0
VERTEX
8
0
10
484
20
351.1769213
42
1
0
VERTEX
8
0
10
496
20
351.1769213
0
SEQEND
0
POLYLINE
8
0
6
CONTINUOUS
66
1
70
1
0
VERTEX
8
0
10
506
20
407.5089373
42
1
0
VERTEX
8
0
10
494
20
407.5089373
0
VERTEX
8
0
10
494
20
359.5089373
42
1
0
VERTEX
8
0
10
506
20
359.5089373
0
SEQEND
0
POLYLINE
8
0
6
CONTINUOUS
66
1
70
1
0
VERTEX
8
0
10
516
20
408.0177855
42
1
0
VERTEX
8
0
10
504
20
408.0177855
0
VERTEX
8
0
10
504
20
360.0177855
42
1
0
VERTEX
8
0
10
516
20
360.0177855
0
SEQEND
0
POLYLINE
8
0
6
CONTINUOUS
66
1
70
1
0
VERTEX
8
0
10
526
20
400.2356333
42
1
0
VERTEX
8
0
10
514
20
400.2356333
0
VERTEX
8
0
10
514
20
352.2356333
42
1
0
VERTEX
8
0
10
526
20
352.2356333
0
SEQEND
0
POLYLINE
8
0
6
CONTINUOUS
66
1
70
1
0
VERTEX
8
0
10
536
20
391.3173555
42
1
0
VERTEX
8
0
10
524
20
391.3173555
0
VERTEX
8
0
10
524
20
343.3173555
42
1
0
VERTEX
8
0
10
536
20
343.3173555
0
SEQEND
0
POLYLINE
8
0
6
CONTINUOUS
66
1
70
1
0
VERTEX
8
0
10
546
20
389.4623755
42
1
0
VERTEX
8
0
10
534
20
389.4623755
0
VERTEX
8
0
10
534
20
341.4623755
42
1
0
VERTEX
8
0
10
546
20
341.4623755
0
SEQEND
0
POLYLINE
8
0
6
CONTINUOUS
66
1
70
1
0
VERTEX
8
0
10
556
20
396.3761535
42
1
0
VERTEX
8
0
10
544
20
396.3761535
0
VERTEX
8
0
10
544
20
348.3761535
42
1
0
VERTEX
8
0
10
556
20
348.3761535
0
SEQEND
0
POLYLINE
8
0
6
CONTINUOUS
66
1
70
1
0
VERTEX
8
0
10
566
20
405.7021938
42
1
0
VERTEX
8
0
10
554
20
405.7021938
0
VERTEX
8
0
10
554
20
357.7021938
42
1
0
VERTEX
8
0
10
566
20
357.7021938
0
SEQEND
0
POLYLINE
8
0
6
CONTINUOUS
66
1
70
1
0
VERTEX
8
0
10
576
20
408.866178
42
1
0
VERTEX
8
0
10
564
20
408.866178
0
VERTEX
8
0
10
564
20
360.866178
42
1
0
VERTEX
8
0
10
576
20
360.866178
0
SEQEND
0
POLYLINE
8
0
6
CONTINUOUS
66
1
70
1
0
VERTEX
8
0
10
586
20
402.9591536
42
1
0
VERTEX
8
0
10
574
20
402.9591536
0
VERTEX
8
0
10
574
20
354.9591536
42
1
0
VERTEX
8
0
10
586
20
354.9591536
0
SEQEND
0
POLYLINE
8
0
6
CONTINUOUS
66
1
70
1
0
VERTEX
8
0
10
596
20
393.4120116
42
1
0
VERTEX
8
0
10
584
20
393.4120116
0
VERTEX
8
0
10
584
20
345.4120116
42
1
0
VERTEX
8
0
10
596
20
345.4120116
0
SEQEND
0
POLYLINE
8
0
6
CONTINUOUS
66
1
70
1
0
VERTEX
8
0
10
606
20
389.0023503
42
1
0
VERTEX
8
0
10
594
20
389.0023503
0
VERTEX
8
0
10
594
20
341.0023503
42
1
0
VERTEX
8
0
10
606
20
341.0023503
0
SEQEND
0
POLYLINE
8
0
6
CONTINUOUS
66
1
70
1
0
VERTEX
8
0
10
616
20
393.784392
42
1
0
VERTEX
8
0
10
604
20
393.784392
0
VERTEX
8
0
10
604
20
345.784392
42
1
0
VERTEX
8
0
10
616
20
345.784392
0
SEQEND
0
POLYLINE
8
0
6
CONTINUOUS
66
1
70
1
0
VERTEX
8
0
10
626
20
403.3615496
42
1
0
VERTEX
8
0
10
614
20
403.3615496
0
VERTEX
8
0
10
614
20
355.3615496
42
1
0
VERTEX
8
0
10
626
20
355.3615496
0
SEQEND
0
POLYLINE
8
0
6
CONTINUOUS
66
1
70
1
0
VERTEX
8
0
10
636
20
408.9286285
42
1
0
VERTEX
8
0
10
624
20
408.9286285
0
VERTEX
8
0
10
624
20
360.9286285
42
1
0
VERTEX
8
0
10
636
20
360.9286285
0
SEQEND
0
POLYLINE
8
0
6
CONTINUOUS
66
1
70
1
0
VERTEX
8
0
10
646
20
405.3672821
42
1
0
VERTEX
8
0
10
634
20
405.3672821
0
VERTEX
8
0
10
634
20
357.3672821
42
1
0
VERTEX
8
0
10
646
20
357.3672821
0
SEQEND
0
POLYLINE
8
0
6
CONTINUOUS
66
1
70
1
0
VERTEX
8
0
10
656
20
395.9517959
42
1
0
VERTEX
8
0
10
644
20
395.9517959
0
VERTEX
8
0
10
644
20
347.9517959
42
1
0
VERTEX
8
0
10
656
20
347.9517959
0
SEQEND
0
POLYLINE
8
0
6
CONTINUOUS
66
1
70
1
0
VERTEX
8
0
10
666
20
389.3387244
42
1
0
VERTEX
8
0
10
654
20
389.3387244
0
VERTEX
8
0
10
654
20
341.3387244
42
1
0
VERTEX
8
0
10
666
20
341.3387244
0
SEQEND
0
POLYLINE
8
0
6
CONTINUOUS
66
1
70
1
0
VERTEX
8
0
10
676
20
391.6080951
42
1
0
VERTEX
8
0
10
664
20
391.6080951
0
VERTEX
8
0
10
664
20
343.6080951
42
1
0
VERTEX
8
0
10
676
20
343.6080951
0
SEQEND
0
POLYLINE
8
0
6
CONTINUOUS
66
1
70
1
0
VERTEX
8
0
10
686
20
400.6734591
42
1
0
VERTEX
8
0
10
674
20
400.6734591
0
VERTEX
8
0
10
674
20
352.6734591
42
1
0
VERTEX
8
0
10
686
20
352.6734591
0
SEQEND
0
POLYLINE
8
0
6
CONTINUOUS
66
1
70
1
0
VERTEX
8
0
10
696
20
408.2001624
42
1
0
VERTEX
8
0
10
684
20
408.2001624
0
VERTEX
8
0
10
684
20
360.2001624
42
1
0
VERTEX
8
0
10
696
20
360.2001624
0
SEQEND
0
POLYLINE
8
0
6
CONTINUOUS
66
1
70
1
0
VERTEX
8
0
10
706
20
407.2681889
42
1
0
VERTEX
8
0
10
694
20
407.2681889
0
VERTEX
8
0
10
694
20
359.2681889
42
1
0
VERTEX
8
0
10
706
20
359.2681889
0
SEQEND
0
POLYLINE
8
0
6
CONTINUOUS
66
1
70
1
0
VERTEX
8
0
10
716
20
398.7343905
42
1
0
VERTEX
8
0
10
704
20
398.7343905
0
VERTEX
8
0
10
704
20
350.7343905
42
1
0
VERTEX
8
0
10
716
20
350.7343905
0
SEQEND
0
POLYLINE
8
0
6
CONTINUOUS
66
1
70
1
0
VERTEX
8
0
10
726
20
390.4447023
42
1
0
VERTEX
8
0
10
714
20
390.4447023
0
VERTEX
8
0
10
714
20
342.4447023
42
1
0
VERTEX
8
0
10
726
20
342.4447023
0
SEQEND
0
POLYLINE
8
0
6
CONTINUOUS
66
1
70
1
0
VERTEX
8
0
10
736
20
390.0206253
42
1
0
VERTEX
8
0
10
724
20
390.0206253
0
VERTEX
8
0
10
724
20
342.0206253
42
1
0
VERTEX
8
0
10
736
20
342.0206253
0
SEQEND
0
POLYLINE
8
0
6
CONTINUOUS
66
1
70
1
0
VERTEX
8
0
10
746
20
397.8520539
42
1
0
VERTEX
8
0
10
734
20
397.8520539
0
VERTEX
8
0
10
734
20
349.8520539
42
1
0
VERTEX
8
0
10
746
20
349.8520539
0
SEQEND
0
POLYLINE
8
0
6
CONTINUOUS
66
1
70
1
0
VERTEX
8
0
10
756
20
406.7388089
42
1
0
VERTEX
8
0
10
744
20
406.7388089
0
VERTEX
8
0
10
744
20
358.7388089
42
1
0
VERTEX
8
0
10
756
20
358.7388089
0
SEQEND
0
POLYLINE
8
0
6
CONTINUOUS
66
1
70
1
0
VERTEX
8
0
10
766
20
408.5104486
42
1
0
VERTEX
8
0
10
754
20
408.5104486
0
VERTEX
8
0
10
754
20
360.5104486
42
1
0
VERTEX
8
0
10
766
20
360.5104486
0
SEQEND
0
POLYLINE
8
0
6
CONTINUOUS
66
1
70
1
0
VERTEX
8
0
10
776
20
401.5381357
42
1
0
VERTEX
8
0
10
764
20
401.5381357
0
VERTEX
8
0
10
764
20
353.5381357
42
1
0
VERTEX
8
0
10
776
20
353.5381357
0
SEQEND
0
POLYLINE
8
0
6
CONTINUOUS
66
1
70
1
0
VERTEX
8
0
10
786
20
392.2321825
42
1
0
VERTEX
8
0
10
774
20
392.2321825
0
VERTEX
8
0
10
774
20
344.2321825
42
1
0
VERTEX
8
0
10
786
20
344.2321825
0
SEQEND
0
POLYLINE
8
0
6
CONTINUOUS
66
1
70
1
0
VERTEX
8
0
10
796
20
389.1484395
42
1
0
VERTEX
8
0
10
784
20
389.1484395
0
VERTEX
8
0
10
784
20
341.1484395
42
1
0
VERTEX
8
0
10
796
20
341.1484395
0
SEQEND
0
POLYLINE
8
0
6
CONTINUOUS
66
1
70
1
0
VERTEX
8
0
10
806
20
395.1220857
42
1
0
VERTEX
8
0
10
794
20
395.1220857
0
VERTEX
8
0
10
794
20
347.1220857
42
1
0
VERTEX
8
0
10
806
20
347.1220857
0
SEQEND
0
POLYLINE
8
0
6
CONTINUOUS
66
1
70
1
0
VERTEX
8
0
10
816
20
404.6609784
42
1
0
VERTEX
8
0
10
804
20
404.6609784
0
VERTEX
8
0
10
804
20
356.6609784
42
1
0
VERTEX
8
0
10
816
20
356.6609784
0
SEQEND
0
POLYLINE
8
0
6
CONTINUOUS
66
1
70
1
0
VERTEX
8
0
10
826
20
408.9951037
42
1
0
VERTEX
8
0
10
814
20
408.9951037
0
VERTEX
8
0
10
814
20
360.9951037
42
1
0
VERTEX
8
0
10
826
20
360.9951037
0
SEQEND
0
POLYLINE
8
0
6
CONTINUOUS
66
1
70
1
0
VERTEX
8
0
10
836
20
404.1396866
42
1
0
VERTEX
8
0
10
824
20
404.1396866
0
VERTEX
8
0
10
824
20
356.1396866
42
1
0
VERTEX
8
0
10
836
20
356.1396866
0
SEQEND
0
POLYLINE
8
0
6
CONTINUOUS
66
1
70
1
0
VERTEX
8
0
10
846
20
394.5587754
42
1
0
VERTEX
8
0
10
834
20
394.5587754
0
VERTEX
8
0
10
834
20
346.5587754
42
1
0
VERTEX
8
0
10
846
20
346.5587754
0
SEQEND
0
POLYLINE
8
0
6
CONTINUOUS
66
1
70
1
0
VERTEX
8
0
10
856
20
389.0610155
42
1
0
VERTEX
8
0
10
844
20
389.0610155
0
VERTEX
8
0
10
844
20
341.0610155
42
1
0
VERTEX
8
0
10
856
20
341.0610155
0
SEQEND
0
POLYLINE
8
0
6
CONTINUOUS
66
1
70
1
0
VERTEX
8
0
10
866
20
392.7010221
42
1
0
VERTEX
8
0
10
854
20
392.7010221
0
VERTEX
8
0
10
854
20
344.7010221
42
1
0
VERTEX
8
0
10
866
20
344.7010221
0
SEQEND
0
POLYLINE
8
0
6
CONTINUOUS
66
1
70
1
0
VERTEX
8
0
10
876
20
402.1321899
42
1
0
VERTEX
8
0
10
864
20
402.1321899
0
VERTEX
8
0
10
864
20
354.1321899
42
1
0
VERTEX
8
0
10
876
20
354.1321899
0
SEQEND
0
POLYLINE
8
0
6
CONTINUOUS
66
1
70
1
0
VERTEX
8
0
10
886
20
408.6835467
42
1
0
VERTEX
8
0
10
874
20
408.6835467
0
VERTEX
8
0
10
874
20
360.6835467
42
1
0
VERTEX
8
0
10
886
20
360.6835467
0
SEQEND
0
POLYLINE
8
0
6
CONTINUOUS
66
1
70
1
0
VERTEX
8
0
10
896
20
406.3318053
42
1
0
VERTEX
8
0
10
884
20
406.3318053
0
VERTEX
8
0
10
884
20
358.3318053
42
1
0
VERTEX
8
0
10
896
20
358.3318053
0
SEQEND
0
POLYLINE
8
0
6
CONTINUOUS
66
1
70
1
0
VERTEX
8
0
10
906
20
397.2391459
42
1
0
VERTEX
8
0
10
894
20
397.2391459
0
VERTEX
8
0
10
894
20
349.2391459
42
1
0
VERTEX
8
0
10
906
20
349.2391459
0
SEQEND
0
POLYLINE
8
0
6
CONTINUOUS
66
1
70
1
0
VERTEX
8
0
10
916
20
389.7653176
42
1
0
VERTEX
8
0
10
904
20
389.7653176
0
VERTEX
8
0
10
904
20
341.7653176
42
1
0
VERTEX
8
0
10
916
20
341.7653176
0
SEQEND
0
POLYLINE
8
0
6
CONTINUOUS
66
1
70
1
0
VERTEX
8
0
10
926
20
390.7817237
42
1
0
VERTEX
8
0
10
914
20
390.7817237
0
VERTEX
8
0
10
914
20
342.7817237
42
1
0
VERTEX
8
0
10
926
20
342.7817237
0
SEQEND
0
POLYLINE
8
0
6
CONTINUOUS
66
1
70
1
0
VERTEX
8
0
10
936
20
399.3538851
42
1
0
VERTEX
8
0
10
924
20
399.3538851
0
VERTEX
8
0
10
924
20
351.3538851
42
1
0
VERTEX
8
0
10
936
20
351.3538851
0
SEQEND
0
POLYLINE
8
0
6
CONTINUOUS
66
1
70
1
0
VERTEX
8
0
10
946
20
407.6005961
42
1
0
VERTEX
8
0
10
934
20
407.6005961
0
VERTEX
8
0
10
934
20
359.6005961
42
1
0
VERTEX
8
0
10
946
20
359.6005961
0
SEQEND
0
POLYLINE
8
0
6
CONTINUOUS
66
1
70
1
0
VERTEX
8
0
10
956
20
407.9398687
42
1
0
VERTEX
8
0
10
944
20
407.9398687
0
VERTEX
8
0
10
944
20
359.9398687
42
1
0
VERTEX
8
0
10
956
20
359.9398687
0
SEQEND
0
POLYLINE
8
0
6
CONTINUOUS
66
1
70
1
0
VERTEX
8
0
10
966
20
400.0597772
42
1
0
VERTEX
8
0
10
954
20
400.0597772
0
VERTEX
8
0
10
954
20
352.0597772
42
1
0
VERTEX
8
0
10
966
20
352.0597772
0
SEQEND
0
POLYLINE
8
0
6
CONTINUOUS
66
1
70
1
0
VERTEX
8
0
10
976
20
391.2052414
42
1
0
VERTEX
8
0
10
964
20
391.2052414
0
VERTEX
8
0
10
964
20
343.2052414
42
1
0
VERTEX
8
0
10
976
20
343.2052414
0
SEQEND
0
POLYLINE
8
0
6
CONTINUOUS
66
1
70
1
0
VERTEX
8
0
10
986
20
389.5170807
42
1
0
VERTEX
8
0
10
974
20
389.5170807
0
VERTEX
8
0
10
974
20
341.5170807
42
1
0
VERTEX
8
0
10
986
20
341.5170807
0
SEQEND
0
POLYLINE
8
0
6
CONTINUOUS
66
1
70
1
0
VERTEX
8
0
10
996
20
396.5473822
42
1
0
VERTEX
8
0
10
984
20
396.5473822
0
VERTEX
8
0
10
984
20
348.5473822
42
1
0
VERTEX
8
0
10
996
20
348.5473822
0
SEQEND
0
POLYLINE
8
0
6
CONTINUOUS
66
1
70
1
0
VERTEX
8
0
10
1006
20
405.8325192
42
1
0
VERTEX
8
0
10
994
20
405.8325192
0
VERTEX
8
0
10
994
20
357.8325192
42
1
0
VERTEX
8
0
10
1006
20
357.8325192
0
SEQEND
0
POLYLINE
8
0
6
CONTINUOUS
66
1
70
1
0
VERTEX
8
0
10
1016
20
408.8357795
42
1
0
VERTEX
8
0
10
1004
20
408.8357795
0
VERTEX
8
0
10
1004
20
360.8357795
42
1
0
VERTEX
8
0
10
1016
20
360.8357795
0
SEQEND
0
POLYLINE
8
0
6
CONTINUOUS
66
1
70
1
0
VERTEX
8
0
10
1026
20
402.7959795
42
1
0
VERTEX
8
0
10
1014
20
402.7959795
0
VERTEX
8
0
10
1014
20
354.7959795
42
1
0
VERTEX
8
0
10
1026
20
354.7959795
0
SEQEND
0
POLYLINE
8
0
6
CONTINUOUS
66
1
70
1
0
VERTEX
8
0
10
1036
20
393.2660833
42
1
0
VERTEX
8
0
10
1024
20
393.2660833
0
VERTEX
8
0
10
1024
20
345.2660833
42
1
0
VERTEX
8
0
10
1036
20
345.2660833
0
SEQEND
0
POLYLINE
8
0
6
CONTINUOUS
66
1
70
1
0
VERTEX
8
0
10
1046
20
389.0078337
42
1
0
VERTEX
8
0
10
1034
20
389.0078337
0
VERTEX
8
0
10
1034
20
341.0078337
42
1
0
VERTEX
8
0
10
1046
20
341.0078337
0
SEQEND
0
POLYLINE
8
0
6
CONTINUOUS
66
1
70
1
0
VERTEX
8
0
10
1056
20
393.9362457
42
1
0
VERTEX
8
0
10
1044
20
393.9362457
0
VERTEX
8
0
10
1044
20
345.9362457
42
1
0
VERTEX
8
0
10
1056
20
345.9362457
0
SEQEND
0
ENDSEC
0
EOF